<?xml version="1.0" encoding="utf-8"?>
<!-- Generator: Adobe Illustrator 24.3.0, SVG Export Plug-In . SVG Version: 6.00 Build 0)  -->
<svg version="1.1" id="Layer_1" xmlns="http://www.w3.org/2000/svg" xmlns:xlink="http://www.w3.org/1999/xlink" x="0px" y="0px"
	 viewBox="0 0 24.7 24.7" style="enable-background:new 0 0 24.7 24.7;" xml:space="preserve">
<style type="text/css">
	.st0{fill:#F8F8F8;}
	.st1{fill:#2F80ED;}
</style>
<g>
	<path class="st0" d="M22.4,5.2c0.2,0.3,0.3,0.6,0.3,0.9c0,1-0.8,1.7-1.7,1.7c-0.3,0-0.5-0.1-0.7-0.2c2.4,4.1,1.3,9.3-2.6,12.1
		c-3.8,2.7-9.1,2.1-12.1-1.3c0,0.1,0,0.2,0,0.4c0,1-0.8,1.7-1.7,1.7c-0.3,0-0.7-0.1-0.9-0.3c4.1,4.9,11.3,5.8,16.6,2.1
		C25,18.4,26.3,10.7,22.4,5.2z"/>
	<path class="st1" d="M5.6,18.8c0-0.1,0-0.3,0-0.4c-0.2-0.3-0.4-0.5-0.7-0.8c0,0,0,0,0,0l0,0c-0.1-0.1-0.1-0.2-0.2-0.3
		C2,13.2,3,7.7,7,4.9c3.9-2.8,9.2-2.1,12.2,1.4c0.2,0.2,0.4,0.5,0.6,0.7l0,0c0,0,0,0,0,0c0.2,0.2,0.3,0.4,0.4,0.7
		c0.2,0.1,0.5,0.2,0.7,0.2c1,0,1.7-0.8,1.7-1.7c0-0.3-0.1-0.6-0.3-0.9c0,0,0,0,0,0l0,0c0,0,0,0,0,0c0,0,0,0,0,0c0,0,0,0,0,0
		c0,0,0,0,0,0l0,0c-0.1-0.1-0.1-0.2-0.2-0.3c-4-5.3-11.5-6.5-17-2.6c-5.5,3.9-6.8,11.5-2.9,17.1c0.1,0.4,0.4,0.7,0.7,0.9
		c0.3,0.2,0.6,0.3,0.9,0.3C4.8,20.6,5.6,19.8,5.6,18.8z"/>
</g>
</svg>
