<?xml version="1.0" encoding="utf-8"?>
<!-- Generator: Adobe Illustrator 24.3.0, SVG Export Plug-In . SVG Version: 6.00 Build 0)  -->
<svg version="1.1" id="Layer_1" xmlns="http://www.w3.org/2000/svg" xmlns:xlink="http://www.w3.org/1999/xlink" x="0px" y="0px"
	 viewBox="0 0 28 28" style="enable-background:new 0 0 28 28;" xml:space="preserve">
<style type="text/css">
	.st0{fill-rule:evenodd;clip-rule:evenodd;fill:#FFFFFF;}
</style>
<path class="st0" d="M18.4,3.1H4c-0.6,0-1.1,0.5-1.1,1.1v15.6l4.4-4.4h11.1c0.6,0,1.1-0.5,1.1-1.1v-10C19.6,3.6,19.1,3.1,18.4,3.1z
	 M17.3,5.3v7.8H6.4l-0.7,0.7l-0.6,0.6V5.3H17.3z M21.8,7.6H24c0.6,0,1.1,0.5,1.1,1.1v16.7l-4.4-4.4H8.4c-0.6,0-1.1-0.5-1.1-1.1v-2.2
	h14.4V7.6z"/>
</svg>
