<?xml version="1.0" encoding="utf-8"?>
<!-- Generator: Adobe Illustrator 24.3.0, SVG Export Plug-In . SVG Version: 6.00 Build 0)  -->
<svg version="1.1" id="Layer_1" xmlns="http://www.w3.org/2000/svg" xmlns:xlink="http://www.w3.org/1999/xlink" x="0px" y="0px"
	 viewBox="0 0 28 28" style="enable-background:new 0 0 28 28;" xml:space="preserve">
<style type="text/css">
	.st0{fill-rule:evenodd;clip-rule:evenodd;fill:#FFFFFF;}
</style>
<path class="st0" d="M4.1,4.7h20c1.2,0,2.2,1,2.2,2.2v14.4c0,1.2-1,2.2-2.2,2.2h-20c-1.2,0-2.2-1-2.2-2.2V6.9
	C1.9,5.7,2.9,4.7,4.1,4.7z M4.1,6.9v14.4H13V6.9H4.1z M24.1,21.3h-8.9V6.9h8.9V21.3z M23,10.8h-6.7v1.7H23V10.8z M16.3,13.6H23v1.7
	h-6.7V13.6z M23,16.3h-6.7V18H23V16.3z"/>
</svg>
